Coordinates
version=1
nRows=10
nColumns=34
inDegrees=yes

Units are S.I. units (second, meters, Newtons, ...)
If the header above contains a line with 'inDegrees', this indicates whether rotational values are in degrees (yes) or radians (no).

endheader
time	pelvis_tilt	pelvis_list	pelvis_rotation	pelvis_tx	pelvis_ty	pelvis_tz	hip_flexion_r	hip_adduction_r	hip_rotation_r	knee_angle_r	ankle_angle_r	subtalar_angle_r	mtp_angle_r	hip_flexion_l	hip_adduction_l	hip_rotation_l	knee_angle_l	ankle_angle_l	subtalar_angle_l	mtp_angle_l	lumbar_extension	lumbar_bending	lumbar_rotation	arm_flex_r	arm_add_r	arm_rot_r	elbow_flex_r	pro_sup_r	arm_flex_l	arm_add_l	arm_rot_l	elbow_flex_l	pro_sup_l
      5.51666670	      1.38375177	      5.53707537	     -5.79194437	      0.28237292	      0.83953269	      0.04598712	     -3.80368626	      0.94489121	      1.05765050	      0.67908919	      7.47714849	     -2.95544760	      0.00000000	     24.11440507	      2.36667226	      1.67702380	     28.02800609	      5.09663041	     -9.81982746	      0.00000000	     -6.22352538	     -2.65757919	      3.79790390	     49.21470925	     11.01647716	     72.45059246	    129.63503902	     89.16633067	     37.84141091	      7.69122825	     70.74665998	    129.44355852	     68.77795838
      5.53333330	      1.70237245	      5.71270115	     -5.95726973	      0.28126775	      0.83877257	      0.04539085	     -3.87036390	      0.66016151	      1.18472531	      0.90447650	      8.14519408	     -3.23238451	      0.00000000	     25.04904589	      2.68142493	      2.32520502	     25.76858477	      4.98475702	     -9.50298179	      0.00000000	     -6.67276707	     -2.80435319	      4.30830694	     49.55654409	     10.99467013	     72.40373564	    129.60972028	     89.06684350	     38.07866432	      7.88761393	     70.67662477	    129.51307143	     68.84429497
      5.55000000	      2.10465519	      5.79664587	     -6.04183367	      0.28170251	      0.83896919	      0.04650652	     -3.91280848	      0.46433624	      1.38774657	      1.30041149	      8.54081015	     -3.44536670	      0.00000000	     25.66839489	      2.80804678	      2.92237498	     23.68136758	      4.47010319	     -9.36428207	      0.00000000	     -7.22323852	     -2.88846486	      4.68180596	     49.86702710	     10.95613899	     72.39735920	    129.70389398	     88.97452410	     38.33304220	      8.07519635	     70.62732788	    129.53273470	     68.89954320
      5.56666670	      2.50037619	      5.64549561	     -5.95808080	      0.28181102	      0.84241041	      0.04495939	     -3.85600222	      0.47459325	      1.41677694	      1.55566030	      8.81585082	     -3.66476922	      0.00000000	     26.20146283	      2.83118595	      3.58961752	     21.96956486	      4.07163142	     -9.10174551	      0.00000000	     -7.64344821	     -2.57157310	      4.73749714	     49.99090527	     10.68064780	     72.38683967	    129.79097917	     88.93595403	     38.43812302	      8.41402676	     70.66712498	    129.66133231	     68.93171126
      5.58333330	      3.41684853	      5.68197044	     -5.83202405	      0.28143836	      0.84402936	      0.04596400	     -4.30665264	      0.26770700	      1.52702952	      1.77720539	      9.76804033	     -4.23149641	      0.00000000	     26.02589649	      3.22289831	      4.78515331	     20.39916873	      2.64216704	    -10.02085818	      0.00000000	     -8.82784815	     -2.77204570	      5.11239384	     50.27810017	     10.06173147	     72.33062462	    130.50627167	     88.71974704	     39.12006109	      8.92050903	     71.23691053	    129.97100192	     69.16218423
      5.60000000	      3.72599949	      5.77358772	     -5.61149490	      0.28465168	      0.84404866	      0.04799834	     -4.57675985	      0.23917168	      1.31026232	      2.30846722	     10.32748052	     -4.42371811	      0.00000000	     26.39538221	      3.48699284	      5.27624007	     18.91067702	      1.80533263	     -9.69332102	      0.00000000	     -8.95862632	     -2.82186780	      5.18055273	     50.18668022	      9.82262487	     72.19563281	    130.39274595	     88.65480565	     39.08651019	      9.21460114	     71.36708700	    130.00144146	     69.20976549
      5.61666670	      4.06822600	      6.13095002	     -5.66992053	      0.28521601	      0.84398018	      0.04754004	     -5.05070767	     -0.04686938	      0.56634714	      2.96105504	     10.29680233	     -4.09259704	      0.00000000	     26.52683671	      3.94093896	      5.39065635	     17.11778779	      0.80733247	     -9.83677429	      0.00000000	     -9.04474336	     -3.33592083	      5.29001276	     49.93797223	      9.63493099	     71.90486822	    130.46644021	     88.54347673	     39.34361338	      9.29900981	     71.63348819	    130.08455067	     69.26961869
      5.63333330	      4.20252676	      6.34307864	     -5.70594936	      0.28475218	      0.84718958	      0.04760561	     -5.15540585	     -0.16692325	     -0.08317100	      3.37785213	     10.15177293	     -3.96321200	      0.00000000	     26.91718806	      4.23360520	      5.65133757	     15.32908589	     -0.02095884	     -9.40687606	      0.00000000	     -9.06074644	     -3.53723998	      5.48020010	     49.82921819	      9.42475821	     71.92934695	    130.43752398	     88.51365594	     39.35429368	      9.26710693	     71.76650413	    130.11260586	     69.27393734
      5.65000000	      4.49969255	      6.61245657	     -5.93343766	      0.28614594	      0.84839555	      0.04867548	     -5.61263611	     -0.45137715	     -1.02910114	      3.25486332	     10.85442404	     -2.23272000	      0.00000000	     26.84194029	      4.48941318	      5.74088758	     13.21848444	     -0.99520390	     -9.22318660	      0.00000000	     -9.16607167	     -3.96546970	      5.86302329	     49.39625248	      9.06118717	     71.67729863	    130.45771738	     88.39949515	     39.53477047	      9.20038324	     71.97241201	    129.53678664	     69.16028046
      5.66666670	      4.52035036	      6.58003415	     -5.97604701	      0.28722673	      0.84817403	      0.04896774	     -5.76963784	     -0.37939076	     -1.17256362	      3.52130278	     10.35633212	     -1.99187974	      0.00000000	     27.11182053	      4.48655468	      5.96738347	     11.70119901	     -1.60179047	     -8.71389516	      0.00000000	     -9.14270634	     -3.81568082	      5.74478539	     49.22111952	      8.79381283	     71.72766236	    130.42267274	     88.39421805	     39.46361942	      9.04388934	     72.03493154	    129.44562611	     69.14192854
